<?xml version="1.0" encoding="utf-8"?>
<!-- Generator: Adobe Illustrator 22.0.0, SVG Export Plug-In . SVG Version: 6.00 Build 0)  -->
<svg version="1.1" id="Layer_1" xmlns="http://www.w3.org/2000/svg" xmlns:xlink="http://www.w3.org/1999/xlink" x="0px" y="0px"
	 viewBox="0 0 85 131" style="enable-background:new 0 0 85 131;" xml:space="preserve">
<style type="text/css">
	.st0{fill:#FFFFFF;}
</style>
<title>logo-purple</title>
<desc>Created with Sketch.</desc>
<g id="Page-1">
	<g id="logo-purple">
		<path id="path32" class="st0" d="M10.3,115.5c-4,0-7.2,3.2-7.2,7.2s3.2,7.2,7.2,7.2h15.2c4,0,7.2-3.2,7.2-7.2s-3.2-7.2-7.2-7.2
			H10.3z M54.9,1.4c-4,0-7.2,3.2-7.2,7.2s3.2,7.2,7.2,7.2h15.2c4,0,7.2-3.2,7.2-7.2s-3.2-7.2-7.2-7.2C70.1,1.4,54.9,1.4,54.9,1.4z
			 M31.5,1.4l-3.9,0.3c-0.8,0-2.6,0.2-3.4,0.4c-1.2,0.2-3,0.6-4.1,1C13.8,5.5,8.4,10,4.9,15.9c-6.4,10.7-6,26.6,2.5,36.2
			C16.9,63,32.8,65.3,46,68.9c5.9,1.6,12.4,3.5,17.1,7.6c3.6,3.1,5.3,7.3,5.9,11.9c0.7,5.4,0.4,11.3-2.2,16.3
			c-1.5,2.9-3.7,5.3-6.3,7c-1.1,0.7-2.2,1.4-3.4,2c-1.4,0.5-2,0.9-5.8,1.3c-0.3,0-1.3,0.1-1.6,0.1l-2.9,0.2c-4,0.3-7,3.7-6.7,7.6
			c0.3,4,3.7,7,7.7,6.7l5-0.3c6.4-0.4,17.4-3.8,23.4-10.7c9.1-10.3,10.1-26.8,6-39.6c-4-12.4-15-18.8-26.8-22.6
			c-3.6-1.2-7.2-2.2-10.8-3c-12.1-2.6-14.8-3.4-21.1-7.2c-3.8-2.3-6.5-5.5-7.4-9.9c-0.9-4.9-0.3-10.6,2.8-14.7
			c0.5-0.7,1-1.3,1.6-1.8c1.6-1.5,4.6-2.7,6.8-3.4c1.5-0.4,6-0.7,6-0.7c4.5-0.3,7.7-4.6,6.2-9.2c-1-3.1-4-5.1-7.3-5.1
			C31.9,1.4,31.7,1.4,31.5,1.4z"/>
	</g>
</g>
</svg>
