<?xml version="1.0" encoding="utf-8"?>
<!-- Generator: Adobe Illustrator 22.0.1, SVG Export Plug-In . SVG Version: 6.00 Build 0)  -->
<svg version="1.1" id="Layer_1" xmlns="http://www.w3.org/2000/svg" xmlns:xlink="http://www.w3.org/1999/xlink" x="0px" y="0px"
	 viewBox="0 0 491 131" style="enable-background:new 0 0 491 131;" xml:space="preserve">
<style type="text/css">
	.st0{fill:#FFFFFF;}
</style>
<title>logo-purple</title>
<desc>Created with Sketch.</desc>
<g id="Page-1">
	<g id="logo-purple">
		<path id="path32" class="st0" d="M407.6,8.8v113c0,4.1,3.3,7.4,7.5,7.4s7.5-3.3,7.5-7.4V77.2c0-1.4,1.1-2.5,2.5-2.5h47.8
			c1.4,0,2.5,1.1,2.5,2.5v44.6c0,4.1,3.3,7.4,7.5,7.4h0c4.1,0,7.5-3.3,7.5-7.4V8.8c0-4.1-3.3-7.4-7.5-7.4h0c-4.1,0-7.5,3.3-7.5,7.4
			v48.7c0,1.4-1.1,2.5-2.5,2.5L425,60c-1.4,0-2.5-1.1-2.5-2.5V8.8c0-4.1-3.3-7.4-7.4-7.4c0,0,0,0,0,0C410.9,1.3,407.6,4.6,407.6,8.8
			z M322.8,0.3c-5.4,0.5-10.5,2.9-14.9,6c-8.6,6.2-12.7,16.4-12.4,26.8c0.3,9.2,4.2,17.1,11.6,22.6c9.1,6.8,20.2,9.6,30.8,13.2
			c7.6,2.6,17.3,6,20.8,14c3.3,7.8,2,18.9-3.5,25.4c-3.2,3.7-8.2,6.6-11.8,6.9c-1.9,0.1-5.1,0.3-7,0.3c-7,0-17.7-0.1-24.7-0.1
			c-3.4,0-6.5,0.9-8.1,4.2c-2.3,4.9,1.5,10.3,6.7,10.4c6,0.2,13.9,0.1,19.9,0.1c3,0,7.9,0.1,10.9,0c4.2-0.1,7-0.9,10.2-2.1
			c9.7-3.6,17.4-11.1,21.1-20.8c3.5-9.4,3.7-21-0.2-30.4c-3.6-8.4-10.9-13.9-19-17.7c-4.9-2.3-10.1-4.1-15.3-5.7
			c-8.6-2.6-6.6-2-2.6-0.8c-5-1.6-9.9-3.3-14.5-5.6c-3.1-1.6-6.3-3.7-8.2-6.7c-3.8-5.9-2.7-15.3,1.8-20.4c2.6-2.9,6.4-4.5,10.2-5.1
			c2.7-0.4,6.1-0.5,8.8-0.5c6.2,0,14,0.2,20.3,0.1c5.3-0.1,9.2-5.4,6.8-10.5c-1.7-3.5-5.1-4.1-8.6-4.1c-3.7,0-10-0.1-16-0.1
			C330.5,0,325.4,0.1,322.8,0.3z M230.6,0.6c0,0-0.1,0-0.1,0c-3,0-5.9,2-6.9,5l-18.6,53l-6.6,18.7l-14.8,42.2
			c-1.4,3.9,0.7,8.2,4.6,9.5l0,0c3.9,1.4,8.2-0.7,9.5-4.6l31.5-89.7c0.5-1.5,2.7-1.5,3.2,0l31.5,89.7c1.4,3.9,5.6,5.9,9.5,4.6l0,0
			c3.9-1.4,5.9-5.6,4.6-9.5l-14.8-42.2l-6.6-18.7l-18.6-53c-1.1-3-3.9-4.9-6.9-5c0,0-0.1,0-0.1,0C230.8,0.6,230.8,0.6,230.6,0.6
			C230.7,0.6,230.7,0.6,230.6,0.6z M106.4,1.3c-4.1,0-7.5,3.3-7.5,7.4v0.1c0,4.1,3.3,7.4,7.5,7.4h22.3c1.5,0,2.7,1.2,2.7,2.7v102.8
			c0,4.1,3.3,7.4,7.5,7.4c4.1,0,7.5-3.3,7.5-7.4V19c0-1.5,1.2-2.7,2.7-2.7h22.2c4.1,0,7.5-3.3,7.5-7.4V8.8c0-4.1-3.3-7.4-7.5-7.4
			H106.4z M9.8,115.5c-4,0-7.2,3.2-7.2,7.2c0,4,3.2,7.2,7.2,7.2H25c4,0,7.2-3.2,7.2-7.2c0-4-3.2-7.2-7.2-7.2H9.8z M54.4,1.4
			c-4,0-7.2,3.2-7.2,7.2s3.2,7.2,7.2,7.2h15.2c4,0,7.2-3.2,7.2-7.2s-3.2-7.2-7.2-7.2H54.4z M31,1.4l-3.9,0.3c-0.8,0-2.6,0.2-3.4,0.4
			c-1.2,0.2-3,0.6-4.1,1C13.3,5.5,7.9,10,4.4,15.9C-2,26.6-1.6,42.5,6.9,52.1C16.4,63,32.3,65.3,45.5,68.9
			c5.9,1.6,12.4,3.5,17.1,7.6c3.6,3.1,5.3,7.3,5.9,11.9c0.7,5.4,0.4,11.3-2.2,16.3c-1.5,2.9-3.7,5.3-6.3,7c-1.1,0.7-2.2,1.4-3.4,2
			c-1.4,0.5-2,0.9-5.8,1.3c-0.3,0-1.3,0.1-1.6,0.1l-2.9,0.2c-4,0.3-7,3.7-6.7,7.6c0.3,4,3.7,7,7.7,6.7l5-0.3
			c6.4-0.4,17.4-3.8,23.4-10.7c9.1-10.3,10.1-26.8,6-39.6c-4-12.4-15-18.8-26.8-22.6c-3.6-1.2-7.2-2.2-10.8-3
			c-12.1-2.6-14.8-3.4-21.1-7.2c-3.8-2.3-6.5-5.5-7.4-9.9c-0.9-4.9-0.3-10.6,2.8-14.7c0.5-0.7,1-1.3,1.6-1.8
			c1.6-1.5,4.6-2.7,6.8-3.4c1.5-0.4,6-0.7,6-0.7c4.5-0.3,7.7-4.6,6.2-9.2c-1-3.1-4-5.1-7.3-5.1C31.4,1.4,31.2,1.4,31,1.4z"/>
	</g>
</g>
</svg>
